<svg xmlns="http://www.w3.org/2000/svg" width="1200" height="800" viewBox="-20.8017 -40.0605 180.2814 240.363"><path d="M30.523 152.933l2.75-7.273 3.026 7.273zm17.991-11.865v18.859h4.628V148.27l10.44 11.656h3.966v-18.86h-4.663v11.17l-10.092-11.17zm-18.025 0l-7.586 18.859h4.977l1.427-3.723h8.421l1.497 3.723h5.081l-8.387-18.86zm-11.553 0h-5.185l-5.95 8.56v-8.56H3.033v18.859h4.768v-8.803l7.412 8.803h5.916l-8.317-9.986zm105.37 0v18.859h14.372v-3.48h-9.605v-15.38h-4.767zm-16.113 3.793c3.517 0 5.951 2.303 5.951 5.846-.072 3.385-2.612 5.672-5.95 5.672-3.365 0-5.95-2.305-5.95-5.742 0-3.557 2.444-5.776 5.95-5.776zm0-3.97c-5.537-.061-10.86 3.782-10.787 9.677 0 5.81 5.151 9.674 10.648 9.674 5.598-.064 10.927-3.65 10.927-9.674 0-5.877-5.226-9.738-10.788-9.676zm-35.215 9.677c0 6.207 5.46 9.59 11.13 9.64 3 .026 5.928-.83 8.148-2.577v-7.76h-7.48v3.55h2.644v2.228c-1.003.375-2.254.67-3.545.652-3.188-.043-5.956-2.258-5.99-5.594-.04-3.99 3.251-5.916 6.891-5.916 2.662 0 4.777.668 6.995 1.67v-4.07c-2.499-.855-4.612-1.436-7.378-1.498-5.848-.128-11.415 3.292-11.415 9.675zM125.118.328c-.826.39-1.616 1.182-2.348 2.365a9673.832 9673.832 0 01-3.095 7.427c-3.527-.372-6.56.495-9.036 2.6l-2.537-.62-4.89-1.732-4.95-1.424C96.6 8.6 95.614 9.156 95.4 10.17c-.129.608.018 1.382.462 2.225.618 1.176 1.75 2.584 3.39 4.225l4.332 3.899c3.015 2.379 3.534 2.81 4.52 6.499 0 2.329-.047 3.746-.49 5.287-.927 3.213-2.98 5.415-6.338 6.254-2.404.602-4.887.13-8.09-.215C82.03 38.72 73.75 44.577 67.13 53.26c-7.452 9.498-8.45 18.467-10.398 29.956-1.175 5.262-2.476 9.656-3.899 13.184-3.7 8.02-9.19 11.934-16.092 16.65-8.16 4.857-17.13 6.715-26.367 8.416a72.3 72.3 0 00-8.13 1.982c-.798.244-2.459 1.477-2.22 2.387.256.975 2.045 1.869 3.015 1.955 4.666.412 8.74.408 12.908.11 8.846-.632 16.915-2.397 25.127-5.876 9.532-4.146 16.897-8.355 22.158-12.504 2.305-2.074 7.767-7.377 11.141-7.055 1.506.06 3.012.123 4.518.186 1.548.123 2.476.805 2.724 1.98l.99 20.92c0 1.547.495 2.723 1.548 3.527 1.176.93 3.156 1.424 5.88 1.424 9.222-.082 18.443-.164 27.666-.248 4.09-.191 5.621-.81 4.89-5.074-.762-1.168-.844-1.582.371-1.98l1.98-.186c1.795-.682 2.848-1.98 3.157-3.9-.477-2.385-1.033-3.271-3.579-3.43-2.54-.156-5.083-.312-7.624-.47-3.21 0-6.387.034-9.594.187-2.892-.578-2.866-1.168-3.063-4.04l-.464-6.73-.372-9.841 8.975-10.77 4.952-10.397c.817.545 1.282 1.039 1.92 1.794 0 1.86.183 2.985.815 3.47 1.264.965 2.456.404 3.195-.588.714-.96.691-1.757.691-2.881 1.785.14 2.846.317 3.625-.116 1.64-.912 1.6-3.025 1.28-4.591-.3-1.457-.879-2.707-1.748-4.33-1.177-1.423-3.095-2.536-5.694-3.341 2.352-5.323 4.146-11.698 5.322-19.187l.487-8.936c.09-1.638.935-3.845 3.03-3.184.638.2 1.272.724 1.93 1.536.805 1.052 1.732 1.424 2.785 1.176 1.626-1.11 2.95-1.634 3.29-3.74.284-1.764-.755-2.947-2.423-4.801l-5.015-5.571c-1.69-1.96-3.383-3.92-5.075-5.88l2.221-9.423c.214-.91.621-2.301.405-3.21-.318-1.34-1.372-2.376-3.25-1.493zm1.986 20.377h-3.528c-.929 1.176-.805 1.918.371 2.166l3.157-.371c1.051-1.176 1.051-1.795 0-1.795zm-3.529 13.369c-1.798 0-3.54-.047-5.322.186-1.152 8.547-3.112 15.535-7.242 23.52l5.51 2.723c5.074-8.416 5.67-16.931 7.054-26.43zm-16.835 41.9c-2.29-1.298-4.58-2.598-6.87-3.898l4.89-4.89c2.084 1.03 4.167 2.063 6.251 3.095-1.424 1.898-2.848 3.796-4.27 5.694zm-12.564 24.698c.58 4.154 1.518 9.756 2.166 13.926-.454 1.773-.908 3.549-1.36 5.322a1226.1 1226.1 0 01-3.157.37l-.806-9.405-.99-9.78z" fill="#005882" fill-rule="evenodd"/></svg>