<svg xmlns="http://www.w3.org/2000/svg" height="800" width="1200" viewBox="-30 -7.00795 260 42.0477"><defs><clipPath id="a"><path d="M44.2773 735.4258H109v21.1601H44.2773zm0 0"/></clipPath></defs><g transform="translate(-58.6561 -974.2504) scale(1.32474)" clip-path="url(#a)"><path d="M108 740.457c-.8672-4.9765-15.836-6.5351-33.4336-3.4726-7.3906 1.289-14.0625 3.1875-19.2578 5.3242.7969.0195 1.3906.1992 1.7539.5586.2773.2812.418.668.418 1.1484v.4922h-1.7227v-.4375c0-.3594-.2187-.586-.6055-.586-.3242 0-.5234.1446-.5937.4376-.0117.078-.0156.2187.0156.3437.1836.754 2.7422 1.2227 3.0196 2.6172.039.1797.0859.5586.0117 1.1094-.164 1.125-1.1485 1.5586-2.4024 1.5586-1.7539 0-2.4687-.832-2.4687-1.9805v-.5351h1.8515l.004.6718c0 .379.2734.5899.6484.5899.3554 0 .5664-.1446.6367-.4375.0313-.1328.0469-.336-.0156-.4844-.3399-.8594-2.7305-1.2578-3.0274-2.6484-.0664-.3164-.0703-.5782-.0156-.9141a1.5772 1.5772 0 01.1523-.4805c-5.7656 2.6953-9.1367 5.6602-8.6914 8.2188.8711 4.9844 15.836 6.539 33.4336 3.4765 7.7344-1.3476 14.6875-3.3632 19.9805-5.625a2.2233 2.2233 0 01-.2305.0117c-1.2031 0-2.2812-.4492-2.3906-1.6797-.0234-.2226-.0234-.3203-.0273-.4453l.0039-2.832c0-.121.0156-.336.0273-.4453.1445-1.1914 1.082-1.6797 2.3867-1.6797 1.0078 0 2.2422.289 2.379 1.6836.0195.1719.0195.3594.0195.418v.2696h-1.7422v-.3984c0-.008-.0078-.1563-.0235-.25-.0273-.1407-.1484-.4727-.6484-.4727-.4922 0-.6172.332-.6484.4727-.0157.078-.0235.1914-.0235.3125v3.0742c0 .1093 0 .1914.0117.2539.0078.0469.0977.4726.668.4726s.6563-.4257.664-.4726c.0157-.086.0157-.1836.0157-.254v-.9491h-.6875v-1.0274h2.4258v1.8242c0 .125 0 .2149-.0235.4453-.0312.3204-.1328.5977-.289.8282 5.6133-2.664 8.8789-5.582 8.4414-8.1055zm-45.629 8.8282l-.8827-5.9961h-.0313l-.9023 5.996h-1.8633l1.25-6.7734h3.039l1.2423 6.7735zm8.9493 0l-.039-5.8829H71.25l-1.0937 5.8829h-1.7461l-1.0899-5.8829h-.0312l-.0391 5.8829h-1.7305l.1485-6.7735h2.7851l.8086 5.0352h.039l.8126-5.0352h2.7851l.1446 6.7735zm8.1484-1.3125c-.1874 1.3125-1.4726 1.543-2.3789 1.543-1.5078 0-2.4453-.6446-2.4453-1.9571l.0078-.539h1.8242v.6679c0 .3633.2579.582.6524.582.3516 0 .5547-.1406.625-.4257.0352-.1368.0508-.336-.0117-.4844-.336-.8399-2.711-1.254-2.9961-2.6172-.0703-.3164-.0703-.5742-.0157-.9102.1954-1.2382 1.3868-1.4922 2.3438-1.4922.8594 0 1.4805.1836 1.8555.5586.2773.2774.418.6602.418 1.1368v.4921h-1.707v-.4336c0-.371-.2306-.582-.5978-.582-.328 0-.5273.1445-.5898.4297-.0117.0586-.0273.1992.0078.3398.1875.754 2.7227 1.211 3 2.5938.0313.1758.086.5508.0078 1.0977zm6.3282-.6133c.0039.125-.0078.3789-.0157.4453-.1054 1.1133-.9023 1.6836-2.3671 1.6836-1.4688 0-2.2696-.5703-2.3711-1.6836-.004-.0664-.0196-.3203-.0157-.4453v-4.8477h1.7461v5c0 .1133.004.1953.0156.25.0235.1133.1329.4727.625.4727.4922 0 .6016-.3594.629-.4727.0078-.0547.0117-.1406.0117-.25v-5h1.7422zm7.5312 1.8554h-2.4297l-1.6328-5.3632h-.0234l.086 5.3632h-1.6954v-6.703h2.5313l1.5117 5.1562h.0351l-.0859-5.1563h1.7031v6.7031" fill="#2347a3"/></g><path d="M105.0325 19.9436c-2.903 0-3.4413-1.7025-3.317-3.643h2.339c0 1.0711.0465 1.9716 1.335 1.9716.7866 0 1.1747-.5124 1.1747-1.273 0-2.013-4.7142-2.1372-4.7142-5.4698 0-1.7542.8383-3.1462 3.6948-3.1462 2.2769 0 3.405 1.0194 3.2497 3.3636h-2.2769c0-.8384-.1397-1.6922-1.0815-1.6922-.7607 0-1.2109.4192-1.2109 1.1954 0 2.1216 4.7142 1.9353 4.7142 5.4542 0 2.8979-2.1268 3.2394-3.907 3.2394m4.7298-.1863l3.0997-11.1879h3.0842l3.0376 11.1879h-2.4632l-.621-2.4787h-3.1928l-.6365 2.4787zm4.5124-9.0352h-.031l-1.0712 4.8385h2.2355l-1.1332-4.8385m5.7698 9.0352V8.5694h3.7672l1.7491 7.607h.031l1.863-7.607h3.6378v11.1879h-2.2769v-8.6315h-.0258l-2.1579 8.6315h-2.2303l-2.0492-8.6315h-.031v8.6315h-2.277m16.0005.1863c-2.898 0-3.4413-1.7025-3.3171-3.643h2.3442c0 1.0711.0466 1.9716 1.3299 1.9716.7917 0 1.1798-.5124 1.1798-1.273 0-2.013-4.709-2.1372-4.709-5.4698 0-1.7542.8331-3.1462 3.6844-3.1462 2.2821 0 3.4102 1.0194 3.255 3.3636h-2.277c0-.8384-.1397-1.6922-1.0867-1.6922-.7555 0-1.2057.4192-1.2057 1.1954 0 2.1216 4.709 1.9353 4.709 5.4542 0 2.8979-2.1216 3.2394-3.9069 3.2394M149.194 8.5694v7.933c0 1.6766-.9418 3.4412-3.793 3.4412-2.5771 0-3.8139-1.33-3.8139-3.4412v-7.933h2.339v7.7777c0 1.3817.59 1.925 1.4438 1.925 1.0194 0 1.4851-.683 1.4851-1.925V8.5694h2.339m1.9302 11.1879V8.5694h3.1618l2.9755 7.7467h.031V8.5694h2.1838v11.1879h-3.0842l-3.0531-8.1813h-.031v8.1813h-2.1838m15.4416-7.7466c.0155-1.0402-.1553-1.9561-1.3972-1.9561-1.4541 0-1.4541 1.9716-1.4541 4.1398 0 3.5034.3415 4.1243 1.6766 4.1243.383 0 .802-.093 1.1591-.2173v-2.4787h-1.273v-1.7232h3.612v5.6715c-.6313.1294-2.2303.3726-3.1617.3726-3.9329 0-4.383-1.6249-4.383-5.8734 0-2.8202.1396-5.687 3.969-5.687 2.2924 0 3.7155 1.2833 3.5757 3.6275h-2.3234m7.6949 2.1527c0-2.96 0-5.7802 3.8603-5.7802 2.3856 0 3.3481 1.3143 3.255 3.7154h-2.2924c0-1.4851-.2691-2.044-.9626-2.044-1.3195 0-1.4903 1.242-1.4903 4.1088 0 2.8668.1708 4.1088 1.4903 4.1088 1.0816 0 1.0402-1.3972 1.0712-2.2821h2.308c0 2.991-1.1954 3.9535-3.3792 3.9535-3.8603 0-3.8603-2.8513-3.8603-5.7802m15.7572 4.709c-.885.8694-1.925 1.0712-3.1153 1.0712-2.577 0-4-1.2109-4-3.3946 0-1.4904 1.04-2.4322 2.1992-3.1929-.59-.7607-1.2367-1.6404-1.2367-2.8047 0-1.242 1.4696-2.1682 3.379-2.1682 1.066 0 2.8359.4916 2.8359 2.1837 0 1.4593-1.0091 2.1993-1.9095 3.0065l1.7542 2.2925c.2018-.7297.2484-1.1437.2484-2.2304h1.8888c0 1.1644 0 2.6185-.7607 3.8294l1.6922 2.2924h-2.2925zm-3.643-4.1346c-.559.4347-1.1282 1.066-1.1282 1.8112 0 1.0711.6313 1.7232 1.7025 1.7232.6676 0 1.2989-.2174 1.7025-.7452zm1.5627-4.0001c0-.59-.357-.9625-.9573-.9625-.4968 0-.978.357-.978.8849 0 .6364.419 1.1436.8227 1.6093.5434-.3415 1.1126-.8331 1.1126-1.5317M200 8.5694v1.8578h-2.6029v9.3301h-2.339v-9.3301h-2.608V8.5694H200" fill="#2347a3"/></svg>